<svg width="64" height="60" xmlns="http://www.w3.org/2000/svg" xmlns:xlink="http://www.w3.org/1999/xlink"><defs><path id="a" d="M.008.097h63.904v59.58H.008z"/></defs><g fill="none" fill-rule="evenodd"><mask id="b" fill="#fff"><use xlink:href="#a"/></mask><path d="M21.79 5.128c.056 4.654 0 9.134 0 14.205 0 1.506-.075 3.016 0 4.424.363 6.817 6.757 11.802 13.655 9.284 3.34-1.22 6.07-4.139 6.579-8.162.32-2.531.062-6.376.062-9.782V7.682c0-.709-.071-1.961 0-2.43 0 0 1.847-1.017 2.235-1.246 2.246-1.322 4.05-2.787 6.765-3.551 4.457-1.254 7.99 1.028 9.993 3.115 2.208 2.301 3.677 6.299 2.297 10.405-1.164 3.46-3.978 5.041-6.766 6.978-5.39 3.746-9.53 8.789-12.103 15.452-1.236 3.198-1.955 7.415-2.359 11.278-.237 2.276-.355 4.168-1.055 5.857-1.265 3.053-3.846 5.559-7.697 6.043-6.533.822-10.51-3.408-11.358-9.034-.32-2.126-.402-4.234-.683-6.23-1.386-9.86-6.028-17.038-12.414-22.057-3.84-3.02-9.097-5.036-8.937-11.714a10.77 10.77 0 0 1 1.551-5.296C3.201 2.557 6.064.173 10.37.143c5.091-.035 7.566 3.094 11.42 4.985" fill="#FFF" mask="url(#b)"/><path d="M31.733 5.047c3.36-.217 6.235 2.223 6.892 5.279.375 1.742.124 5.07.124 6.912 0 2.197.18 4.942-.062 6.975-.269 2.263-1.498 3.926-2.856 4.839-4.139 2.781-10.033.3-10.555-5.09-.242-2.5 0-4.924 0-7.415 0-2.424-.232-5.314.372-7.038.793-2.258 2.986-4.261 6.085-4.462" fill="#FFF"/></g></svg>